<svg width="800" height="600" viewBox="0 0 800 600" fill="none" xmlns="http://www.w3.org/2000/svg">
  <rect width="800" height="600" fill="#2C3E2D"/>
  <rect x="40" y="40" width="720" height="520" rx="24" fill="#3B5240" stroke="#5A7D5E" stroke-width="3"/>
  <!-- Fortress walls -->
  <rect x="160" y="280" width="480" height="160" rx="6" fill="#6B5B3E"/>
  <rect x="180" y="260" width="100" height="180" rx="4" fill="#7D6B4A"/>
  <rect x="520" y="260" width="100" height="180" rx="4" fill="#7D6B4A"/>
  <rect x="340" y="240" width="120" height="200" rx="4" fill="#8A7755"/>
  <!-- Battlements -->
  <rect x="180" y="245" width="20" height="25" fill="#7D6B4A"/>
  <rect x="210" y="245" width="20" height="25" fill="#7D6B4A"/>
  <rect x="250" y="245" width="20" height="25" fill="#7D6B4A"/>
  <rect x="530" y="245" width="20" height="25" fill="#7D6B4A"/>
  <rect x="560" y="245" width="20" height="25" fill="#7D6B4A"/>
  <rect x="590" y="245" width="20" height="25" fill="#7D6B4A"/>
  <!-- Flag -->
  <line x1="400" y1="160" x2="400" y2="240" stroke="#D4C5A0" stroke-width="4"/>
  <path d="M402 160L450 178L402 196Z" fill="#A63D2F"/>
  <!-- Ground -->
  <rect x="80" y="440" width="640" height="80" rx="8" fill="#4A6B3E"/>
  <!-- Title area -->
  <text x="400" y="540" text-anchor="middle" fill="#D4C5A0" font-family="serif" font-size="22" font-weight="bold">Chiến khu Ba Đình 1886-1887</text>
</svg>