<svg width="800" height="600" viewBox="0 0 800 600" fill="none" xmlns="http://www.w3.org/2000/svg">
  <rect width="800" height="600" fill="#E8F0E4"/>
  <rect x="40" y="40" width="720" height="520" rx="24" fill="#F2F8EF" stroke="#93B48C" stroke-width="3"/>
  <!-- Sedge field -->
  <rect x="80" y="350" width="640" height="120" rx="8" fill="#B8CFA8"/>
  <!-- Sedge stalks -->
  <line x1="140" y1="200" x2="140" y2="370" stroke="#5A8B4A" stroke-width="4" stroke-linecap="round"/>
  <line x1="180" y1="220" x2="180" y2="380" stroke="#4A7B3A" stroke-width="4" stroke-linecap="round"/>
  <line x1="220" y1="190" x2="220" y2="360" stroke="#6A9B5A" stroke-width="4" stroke-linecap="round"/>
  <line x1="260" y1="210" x2="260" y2="370" stroke="#5A8B4A" stroke-width="4" stroke-linecap="round"/>
  <line x1="300" y1="195" x2="300" y2="365" stroke="#4A7B3A" stroke-width="4" stroke-linecap="round"/>
  <line x1="340" y1="215" x2="340" y2="375" stroke="#6A9B5A" stroke-width="4" stroke-linecap="round"/>
  <line x1="380" y1="200" x2="380" y2="370" stroke="#5A8B4A" stroke-width="4" stroke-linecap="round"/>
  <line x1="420" y1="185" x2="420" y2="355" stroke="#4A7B3A" stroke-width="4" stroke-linecap="round"/>
  <line x1="460" y1="205" x2="460" y2="375" stroke="#6A9B5A" stroke-width="4" stroke-linecap="round"/>
  <line x1="500" y1="195" x2="500" y2="365" stroke="#5A8B4A" stroke-width="4" stroke-linecap="round"/>
  <line x1="540" y1="210" x2="540" y2="380" stroke="#4A7B3A" stroke-width="4" stroke-linecap="round"/>
  <line x1="580" y1="190" x2="580" y2="360" stroke="#6A9B5A" stroke-width="4" stroke-linecap="round"/>
  <line x1="620" y1="200" x2="620" y2="370" stroke="#5A8B4A" stroke-width="4" stroke-linecap="round"/>
  <line x1="660" y1="215" x2="660" y2="375" stroke="#4A7B3A" stroke-width="4" stroke-linecap="round"/>
  <!-- Sedge tips -->
  <circle cx="140" cy="195" r="5" fill="#7AAD6A"/>
  <circle cx="220" cy="185" r="5" fill="#7AAD6A"/>
  <circle cx="300" cy="190" r="5" fill="#7AAD6A"/>
  <circle cx="380" cy="195" r="5" fill="#7AAD6A"/>
  <circle cx="460" cy="200" r="5" fill="#7AAD6A"/>
  <circle cx="540" cy="205" r="5" fill="#7AAD6A"/>
  <circle cx="620" cy="195" r="5" fill="#7AAD6A"/>
  <!-- Woven mat -->
  <rect x="250" y="420" width="120" height="30" rx="4" fill="#D4B07A" stroke="#B89860" stroke-width="2"/>
  <line x1="265" y1="420" x2="265" y2="450" stroke="#C4A06A" stroke-width="1.5"/>
  <line x1="280" y1="420" x2="280" y2="450" stroke="#C4A06A" stroke-width="1.5"/>
  <line x1="295" y1="420" x2="295" y2="450" stroke="#C4A06A" stroke-width="1.5"/>
  <line x1="310" y1="420" x2="310" y2="450" stroke="#C4A06A" stroke-width="1.5"/>
  <line x1="325" y1="420" x2="325" y2="450" stroke="#C4A06A" stroke-width="1.5"/>
  <line x1="340" y1="420" x2="340" y2="450" stroke="#C4A06A" stroke-width="1.5"/>
  <line x1="355" y1="420" x2="355" y2="450" stroke="#C4A06A" stroke-width="1.5"/>
  <!-- Title -->
  <text x="400" y="530" text-anchor="middle" fill="#3A6B2A" font-family="serif" font-size="22" font-weight="bold">Nghề cói Nga Sơn</text>
</svg>