<svg width="800" height="600" viewBox="0 0 800 600" fill="none" xmlns="http://www.w3.org/2000/svg">
  <rect width="800" height="600" fill="#F0E8D8"/>
  <rect x="40" y="40" width="720" height="520" rx="24" fill="#FAF4E8" stroke="#C4A882" stroke-width="3"/>
  <!-- School building -->
  <rect x="200" y="250" width="400" height="180" rx="6" fill="#E8D8C0"/>
  <rect x="200" y="230" width="400" height="30" fill="#8B4E2A"/>
  <!-- Roof -->
  <path d="M180 230L400 150L620 230Z" fill="#A65C30" stroke="#8B4E2A" stroke-width="2"/>
  <!-- Windows -->
  <rect x="240" y="280" width="50" height="60" rx="3" fill="#87CEEB" stroke="#6D3220" stroke-width="2"/>
  <rect x="330" y="280" width="50" height="60" rx="3" fill="#87CEEB" stroke="#6D3220" stroke-width="2"/>
  <rect x="420" y="280" width="50" height="60" rx="3" fill="#87CEEB" stroke="#6D3220" stroke-width="2"/>
  <rect x="510" y="280" width="50" height="60" rx="3" fill="#87CEEB" stroke="#6D3220" stroke-width="2"/>
  <!-- Door -->
  <rect x="370" y="360" width="60" height="70" rx="3" fill="#6D3220"/>
  <circle cx="420" cy="398" r="4" fill="#D4B07A"/>
  <!-- School name plaque -->
  <rect x="290" y="170" width="220" height="36" rx="4" fill="#FFF8EE" stroke="#8B4E2A" stroke-width="2"/>
  <text x="400" y="195" text-anchor="middle" fill="#6D3220" font-family="serif" font-size="14" font-weight="bold">THPT MAI ANH TUẤN</text>
  <!-- Trees -->
  <circle cx="150" cy="340" r="40" fill="#6B9B5A"/>
  <rect x="146" y="370" width="8" height="60" fill="#8B6B4A"/>
  <circle cx="650" cy="340" r="40" fill="#6B9B5A"/>
  <rect x="646" y="370" width="8" height="60" fill="#8B6B4A"/>
  <!-- Ground -->
  <rect x="80" y="430" width="640" height="40" rx="6" fill="#C9D8B0"/>
  <!-- Title -->
  <text x="400" y="530" text-anchor="middle" fill="#6D3220" font-family="serif" font-size="22" font-weight="bold">Trường THPT Mai Anh Tuấn</text>
</svg>